<?xml version="1.0" encoding="iso-8859-1"?>
<!-- Uploaded to: SVG Repo, www.svgrepo.com, Generator: SVG Repo Mixer Tools -->
<!DOCTYPE svg PUBLIC "-//W3C//DTD SVG 1.1//EN" "http://www.w3.org/Graphics/SVG/1.1/DTD/svg11.dtd">
<svg fill="#000000" version="1.1" id="Capa_1" xmlns="http://www.w3.org/2000/svg" xmlns:xlink="http://www.w3.org/1999/xlink" 
	 width="800px" height="800px" viewBox="0 0 343.331 343.332"
	 xml:space="preserve">
<g>
	<path d="M88.856,42.036c6.48-13.777,44.764-39.223,82.252-39.223c12.042,0,22.878,2.575,32.368,7.674
		c-14.53,1.344-40.856,7.5-54.373,33.5c-0.79,1.527-0.809,3.344-0.039,4.881l12.972,25.938l-26.324,24.128
		c-4.436-2.354-12.499-5.806-23.006-6.761c-1.157-0.107-2.259-0.152-3.302-0.152c-7.782,0-13.223,2.727-16.685,5.806L67.443,75.583
		C72.392,69.78,81.25,58.194,88.856,42.036z"/>
	<g>
		<polygon points="77.885,118.243 50.861,94.339 37.884,109.045 65.843,132.865 		"/>
		<path d="M343.217,247.772l-90.931-87.235l-70.068-68.358l-29.02,25.334l154.449,165.099c3.789,1.286,13.938-2.116,23.58-11.754
			C340.592,261.494,344.024,251.914,343.217,247.772z"/>
		<path d="M325.212,299.531H40.987v-69.083l13.149-9.144c1.924-1.344,2.761-3.779,2.058-6.027c-0.704-2.236-2.785-3.769-5.129-3.769
			H20.157c-2.349,0-4.422,1.532-5.129,3.769c-0.704,2.248,0.131,4.684,2.061,6.027l13.147,9.144v69.083H5.375
			c-2.971,0-5.375,2.404-5.375,5.376v30.235c0,2.977,2.404,5.376,5.375,5.376h319.837c2.971,0,5.374-2.399,5.374-5.376v-30.235
			C330.586,301.935,328.183,299.531,325.212,299.531z"/>
	</g>
</g>
</svg>